<svg width="1920" height="1080" viewBox="0 0 1920 1080" fill="none" xmlns="http://www.w3.org/2000/svg">
<path d="M1920 1080H0V0H1920V1080ZM700.114 547.203C729.785 478.805 795.211 369.254 698.445 391.645C658.819 400.814 621.84 433.091 616.386 437.853V437.852C511.975 529.944 442.827 694.152 483.992 579.885C509.634 508.709 543.504 439.063 537.104 426.562C532.155 416.895 513.625 414.776 500.632 430.809C467.889 471.211 379.438 692.19 420.806 713.726C434.74 720.979 456.677 715.651 462.651 702.969C472.237 682.62 532.839 553.973 624.529 464.834C660.472 429.891 711.849 398.515 702.677 426.193C691.062 461.24 562.301 709.389 620.488 715.65C644.201 718.202 646.509 670.777 700.114 547.203ZM1275.2 362.015C1206.78 360.461 1122.09 483.02 1121.47 483.374C1116.33 486.323 1119.8 481.551 1122.38 472.333C1139.21 411.982 1138.85 403.797 1138.58 397.739C1138.12 387.628 1122.05 386.585 1113.64 391.561C1089.25 405.993 1048.12 573.154 1042.84 597.479C1021.02 698.084 1025.85 713.756 1046.99 714.505C1081.52 715.728 1059 680.304 1116.31 549.802C1123.67 533.036 1159.16 537.601 1224.97 493.59C1321.62 430.178 1319.12 363.012 1275.2 362.015ZM893.471 512.841C885.682 510.204 873.165 513.118 869.258 520.289C868.456 521.761 865.323 533.142 856.967 533.916C739.005 544.85 728.528 543.43 735.022 549.537C741.005 555.162 853.13 541.83 855.66 549.746C858.16 557.569 845.363 556.253 828.517 666.572C824.004 696.12 821.321 696.493 826.314 705.486C828.481 706.849 845.244 717.391 855.62 691.143C869.82 655.219 888.024 549.959 898.108 545.572C912.271 539.412 1003.18 547.22 1004.33 539.016C1005.22 532.724 999.788 535.309 908.171 533.291C888.752 532.864 906.82 517.361 893.471 512.841ZM1242.12 492.811C1234.47 491.188 1234.67 492.886 1227.79 496.137C1184 531.341 1134.66 714.405 1174.5 698.081C1188.08 692.517 1193.76 644.291 1244.86 514.406C1246.14 511.149 1254.52 495.442 1242.12 492.811ZM1360.94 620.224C1351.07 624.037 1387.75 566.414 1351.12 571.107C1316.64 575.524 1298.52 679.334 1321.29 687.283C1348.79 696.885 1349.95 660.173 1391.92 614.482C1407.12 600.104 1381.95 633.225 1388.1 680.129C1390.23 696.376 1403.55 700.842 1409.93 690.688C1412.12 687.197 1428.76 616.041 1430.28 609.531C1441.01 563.666 1404.66 577.508 1391.23 588.15C1358.13 614.372 1364.52 618.841 1360.94 620.224ZM1020.02 582.825C1004.54 568.592 972.608 607.347 951.717 626.291C909.292 664.762 961.774 594.723 941.368 586.298C895.566 567.389 865.075 719.783 945.399 659.151C967.546 640.281 974.888 629.995 971.915 639.433C958.574 681.788 971.446 694.181 974.379 694.705C986.322 696.834 1033.15 594.9 1020.02 582.825ZM778.025 591.843C776.674 582.758 753.777 568.086 725.514 595.436C702.554 618.821 670.731 686.475 719.625 681.141C739.251 678.999 761.986 655.686 767.001 649.858C781.869 632.581 752.612 687.876 782.592 692.017C796.235 693.901 791.475 682.752 797.061 662.469C811.468 610.151 822.632 583.063 799.071 585.284C783.265 586.774 779.337 600.668 778.025 591.843ZM1294.89 573.5C1244.79 568.56 1186.43 648.863 1217.95 681.132C1243.48 707.275 1293.01 669.141 1261.78 677.007C1235.1 683.728 1240.24 652.2 1246.21 644.188C1255.02 639.796 1255.26 640.448 1263.49 637.86C1301.86 625.804 1328.66 576.831 1294.89 573.5ZM1510.46 591.831C1505.29 565.738 1463.17 573.177 1441.2 634.18C1420.73 690.994 1459.49 702.049 1485.32 677.204L1485.93 676.61C1509.22 647.446 1512.59 602.555 1510.46 591.831ZM1472.12 655.657C1465.16 633.098 1500.17 569.492 1491.03 612.219C1487.47 628.841 1483.65 642.685 1475.96 654.996C1473.58 656.128 1472.79 657.826 1472.12 655.657ZM750.286 612.789C751.059 612.047 759.22 604.216 762.495 605.825C778.166 613.528 735.362 650.133 731.222 650C721.605 649.69 748.169 615.513 750.286 612.789ZM1281.77 595.812C1292.27 595.243 1269.7 622.938 1258.5 622.164C1256.91 622.054 1256.28 620.671 1267.76 607.696C1268.78 606.667 1279.36 595.943 1281.77 595.812ZM1265.27 388.348C1290.08 384.372 1269.96 432.452 1217.17 474.506C1200.85 487.514 1181.39 499.945 1159.18 510.081C1151.4 513.63 1129.11 524.663 1132.48 518.545C1157.26 473.558 1193.47 438.571 1199.93 432.323C1206.66 426.424 1245.11 391.577 1265.27 388.348Z" fill="#E8E8E8"/>
</svg>
