<svg width="800" height="156" viewBox="0 0 800 156" fill="none" xmlns="http://www.w3.org/2000/svg">
<path d="M23.2558 50.4C8.63979 50.4 0.431793 44.64 0.431793 33.408V32.976H11.2318V34.272C11.2318 38.736 13.4638 40.536 23.2558 40.536C31.8958 40.536 33.9118 39.24 33.9118 36C33.9118 33.048 32.2558 31.968 27.2878 31.104L13.7518 29.16C5.11179 27.792 -0.000206918 23.472 -0.000206918 15.624C-0.000206918 8.35199 5.90379 0.719992 22.1038 0.719992C36.9358 0.719992 43.8478 7.55999 43.8478 17.712V18.144H32.9758V17.136C32.9758 12.528 30.5998 10.584 21.0238 10.584C13.2478 10.584 10.8718 12.096 10.8718 15.192C10.8718 18 12.4558 19.008 16.4878 19.728L30.0238 21.888C40.8238 23.616 44.7118 28.872 44.7118 35.496C44.7118 43.344 38.5918 50.4 23.2558 50.4ZM60.198 50.4C52.422 50.4 47.742 46.8 47.742 40.752C47.742 35.424 51.702 32.112 59.406 31.32L74.886 29.736V28.368C74.886 23.688 72.798 22.392 67.038 22.392C61.566 22.392 59.334 23.832 59.334 27.936V28.224H48.462V28.008C48.462 19.08 55.95 12.888 67.83 12.888C79.854 12.888 85.542 19.08 85.542 28.512V49.68H75.462V41.4H74.886C73.23 47.016 68.19 50.4 60.198 50.4ZM58.614 40.032C58.614 41.976 60.126 42.768 63.294 42.768C70.638 42.768 74.598 41.04 74.886 35.928L62.358 37.368C59.766 37.584 58.614 38.304 58.614 40.032ZM116.936 9.35999H105.344L114.776 -1.14441e-05H130.256L116.936 9.35999ZM105.92 50.4C95.7682 50.4 90.9442 44.136 90.9442 36.072V13.608H101.744V32.472C101.744 38.304 104.192 40.752 111.032 40.752C118.088 40.752 120.608 38.016 120.608 31.896V13.608H131.408V49.68H121.328V38.664H120.752C119.816 44.712 115.424 50.4 105.92 50.4ZM153.058 50.4C141.826 50.4 135.634 43.056 135.634 31.68C135.634 20.16 141.754 12.888 152.482 12.888C161.05 12.888 165.442 17.136 166.666 23.184H167.314V1.43999H178.114V49.68H168.034V39.672H167.458C166.09 46.8 161.338 50.4 153.058 50.4ZM146.578 31.68C146.578 38.232 149.818 40.536 156.73 40.536C163.57 40.536 167.314 38.16 167.314 31.896V31.32C167.314 25.056 163.642 22.752 156.73 22.752C149.818 22.752 146.578 25.056 146.578 31.68ZM202.981 50.4C190.957 50.4 182.749 44.496 182.749 31.68C182.749 20.16 190.885 12.888 202.765 12.888C214.573 12.888 222.421 19.08 222.421 30.384C222.421 31.68 222.277 32.616 222.133 33.84H192.757C193.045 39.384 195.637 41.76 202.621 41.76C209.029 41.76 211.261 40.104 211.261 37.008V36.288H222.061V37.08C222.061 44.928 214.429 50.4 202.981 50.4ZM202.549 21.312C196.141 21.312 193.405 23.472 192.901 28.152H212.053C211.765 23.4 208.885 21.312 202.549 21.312ZM248.91 49.68H238.11V1.43999H248.91V49.68ZM265.363 49.68H254.563V13.608H264.571V24.696H265.219C266.155 18.648 270.475 12.888 279.907 12.888C289.771 12.888 294.451 19.224 294.451 27.216V49.68H283.651V30.816C283.651 25.056 281.275 22.608 274.651 22.608C267.811 22.608 265.363 25.344 265.363 31.464V49.68ZM325.331 49.68H316.403C307.979 49.68 302.867 45.72 302.867 36.648V22.536H297.179V13.608H302.867V6.62399H313.667V13.608H325.331V22.536H313.667V35.424C313.667 39.024 315.035 39.96 318.851 39.96H325.331V49.68ZM348.528 50.4C336.504 50.4 328.296 44.496 328.296 31.68C328.296 20.16 336.432 12.888 348.312 12.888C360.12 12.888 367.968 19.08 367.968 30.384C367.968 31.68 367.824 32.616 367.68 33.84H338.304C338.592 39.384 341.184 41.76 348.168 41.76C354.576 41.76 356.808 40.104 356.808 37.008V36.288H367.608V37.08C367.608 44.928 359.976 50.4 348.528 50.4ZM348.096 21.312C341.688 21.312 338.952 23.472 338.448 28.152H357.6C357.312 23.4 354.432 21.312 348.096 21.312ZM388.387 46.008C377.659 46.008 371.467 39.6 371.467 29.448C371.467 19.368 378.019 12.888 388.819 12.888C396.163 12.888 401.419 16.056 402.571 22.32H403.147V13.608H413.227V44.424C413.227 57.024 405.595 62.64 392.707 62.64C381.043 62.64 373.699 57.456 373.699 48.384H384.499C384.499 52.416 386.083 53.64 393.427 53.64C400.339 53.64 402.427 52.2 402.427 45.144V37.008H401.851C400.699 42.336 396.451 46.008 388.387 46.008ZM382.339 29.448C382.339 34.776 385.363 36.72 392.131 36.72C399.043 36.72 402.427 34.776 402.427 29.808V29.016C402.427 24.12 398.971 22.248 392.275 22.248C385.363 22.248 382.339 24.12 382.339 29.448ZM429.754 49.68H418.954V13.608H428.962V23.184H429.61C430.618 17.352 434.434 12.888 441.706 12.888C449.77 12.888 453.082 18.432 453.082 25.488V31.464H442.282V27.72C442.282 23.76 440.698 22.032 436.306 22.032C431.482 22.032 429.754 24.264 429.754 28.8V49.68ZM468.081 50.4C460.305 50.4 455.625 46.8 455.625 40.752C455.625 35.424 459.585 32.112 467.289 31.32L482.769 29.736V28.368C482.769 23.688 480.681 22.392 474.921 22.392C469.449 22.392 467.217 23.832 467.217 27.936V28.224H456.345V28.008C456.345 19.08 463.833 12.888 475.713 12.888C487.737 12.888 493.425 19.08 493.425 28.512V49.68H483.345V41.4H482.769C481.113 47.016 476.073 50.4 468.081 50.4ZM466.497 40.032C466.497 41.976 468.009 42.768 471.177 42.768C478.521 42.768 482.481 41.04 482.769 35.928L470.241 37.368C467.649 37.584 466.497 38.304 466.497 40.032ZM524.315 49.68H515.387C506.963 49.68 501.851 45.72 501.851 36.648V22.536H496.163V13.608H501.851V6.62399H512.651V13.608H524.315V22.536H512.651V35.424C512.651 39.024 514.019 39.96 517.835 39.96H524.315V49.68ZM539.16 9.93599H528.36V1.43999H539.16V9.93599ZM539.16 49.68H528.36V13.608H539.16V49.68ZM571.669 49.68H558.349L541.933 13.608H553.957L564.757 39.168H565.477L576.349 13.608H588.157L571.669 49.68ZM602.096 50.4C594.32 50.4 589.64 46.8 589.64 40.752C589.64 35.424 593.6 32.112 601.304 31.32L616.784 29.736V28.368C616.784 23.688 614.696 22.392 608.936 22.392C603.464 22.392 601.232 23.832 601.232 27.936V28.224H590.36V28.008C590.36 19.08 597.848 12.888 609.728 12.888C621.752 12.888 627.44 19.08 627.44 28.512V49.68H617.36V41.4H616.784C615.128 47.016 610.088 50.4 602.096 50.4ZM600.512 40.032C600.512 41.976 602.024 42.768 605.192 42.768C612.536 42.768 616.496 41.04 616.784 35.928L604.256 37.368C601.664 37.584 600.512 38.304 600.512 40.032ZM663.176 50.4C651.152 50.4 642.944 44.496 642.944 31.68C642.944 20.16 651.08 12.888 662.96 12.888C674.768 12.888 682.616 19.08 682.616 30.384C682.616 31.68 682.472 32.616 682.328 33.84H652.952C653.24 39.384 655.832 41.76 662.816 41.76C669.224 41.76 671.456 40.104 671.456 37.008V36.288H682.256V37.08C682.256 44.928 674.624 50.4 663.176 50.4ZM662.744 21.312C656.336 21.312 653.6 23.472 653.096 28.152H672.248C671.96 23.4 669.08 21.312 662.744 21.312ZM12.1678 138.68H1.36779V90.44H12.8878L30.1678 113.264L36.7918 123.416H37.5838L37.0798 113.696V90.44H47.8798V138.68H36.3598L18.5758 115.64L12.4558 106.568H11.7358L12.1678 115.424V138.68ZM64.698 139.4C56.922 139.4 52.242 135.8 52.242 129.752C52.242 124.424 56.202 121.112 63.906 120.32L79.386 118.736V117.368C79.386 112.688 77.298 111.392 71.538 111.392C66.066 111.392 63.834 112.832 63.834 116.936V117.224H52.962V117.008C52.962 108.08 60.45 101.888 72.33 101.888C84.354 101.888 90.042 108.08 90.042 117.512V138.68H79.962V130.4H79.386C77.73 136.016 72.69 139.4 64.698 139.4ZM63.114 129.032C63.114 130.976 64.626 131.768 67.794 131.768C75.138 131.768 79.098 130.04 79.386 124.928L66.858 126.368C64.266 126.584 63.114 127.304 63.114 129.032ZM120.932 138.68H112.004C103.58 138.68 98.4682 134.72 98.4682 125.648V111.536H92.7802V102.608H98.4682V95.624H109.268V102.608H120.932V111.536H109.268V124.424C109.268 128.024 110.636 128.96 114.452 128.96H120.932V138.68ZM139.881 139.4C129.729 139.4 124.905 133.136 124.905 125.072V102.608H135.705V121.472C135.705 127.304 138.153 129.752 144.993 129.752C152.049 129.752 154.569 127.016 154.569 120.896V102.608H165.369V138.68H155.289V127.664H154.713C153.777 133.712 149.385 139.4 139.881 139.4ZM181.691 138.68H170.891V102.608H180.899V112.184H181.547C182.555 106.352 186.371 101.888 193.643 101.888C201.707 101.888 205.019 107.432 205.019 114.488V120.464H194.219V116.72C194.219 112.76 192.635 111.032 188.243 111.032C183.419 111.032 181.691 113.264 181.691 117.8V138.68ZM228.154 139.4C215.842 139.4 207.562 132.056 207.562 120.68C207.562 109.16 215.842 101.888 228.154 101.888C240.466 101.888 248.746 109.16 248.746 120.68C248.746 132.056 240.466 139.4 228.154 139.4ZM228.154 129.824C235.426 129.824 238.018 127.016 238.018 120.68C238.018 114.344 235.426 111.392 228.154 111.392C220.81 111.392 218.29 114.344 218.29 120.68C218.29 127.016 220.81 129.824 228.154 129.824ZM263.957 150.92H253.157V102.608H263.165V112.472H263.885C265.181 105.56 269.789 101.888 278.285 101.888C289.373 101.888 295.565 109.232 295.565 120.68C295.565 132.128 289.517 139.4 278.645 139.4C270.293 139.4 265.685 135.296 264.461 128.96H263.957V150.92ZM263.957 121.184C263.957 127.376 267.701 129.536 274.469 129.536C281.381 129.536 284.621 127.232 284.621 120.68C284.621 114.056 281.381 111.824 274.541 111.824C267.557 111.824 263.957 114.2 263.957 120.608V121.184ZM311.143 139.4C303.367 139.4 298.687 135.8 298.687 129.752C298.687 124.424 302.647 121.112 310.351 120.32L325.831 118.736V117.368C325.831 112.688 323.743 111.392 317.983 111.392C312.511 111.392 310.279 112.832 310.279 116.936V117.224H299.407V117.008C299.407 108.08 306.895 101.888 318.775 101.888C330.799 101.888 336.487 108.08 336.487 117.512V138.68H326.407V130.4H325.831C324.175 136.016 319.135 139.4 311.143 139.4ZM309.559 129.032C309.559 130.976 311.071 131.768 314.239 131.768C321.583 131.768 325.543 130.04 325.831 124.928L313.303 126.368C310.711 126.584 309.559 127.304 309.559 129.032ZM367.378 138.68H358.45C350.026 138.68 344.914 134.72 344.914 125.648V111.536H339.226V102.608H344.914V95.624H355.714V102.608H367.378V111.536H355.714V124.424C355.714 128.024 357.082 128.96 360.898 128.96H367.378V138.68ZM382.222 98.936H371.422V90.44H382.222V98.936ZM382.222 138.68H371.422V102.608H382.222V138.68ZM398.964 139.4C391.188 139.4 386.508 135.8 386.508 129.752C386.508 124.424 390.468 121.112 398.172 120.32L413.652 118.736V117.368C413.652 112.688 411.564 111.392 405.804 111.392C400.332 111.392 398.1 112.832 398.1 116.936V117.224H387.228V117.008C387.228 108.08 394.716 101.888 406.596 101.888C418.62 101.888 424.308 108.08 424.308 117.512V138.68H414.228V130.4H413.652C411.996 136.016 406.956 139.4 398.964 139.4ZM397.38 129.032C397.38 130.976 398.892 131.768 402.06 131.768C409.404 131.768 413.364 130.04 413.652 124.928L401.124 126.368C398.532 126.584 397.38 127.304 397.38 129.032ZM449.747 138.68H437.651L458.747 90.44H474.155L495.395 138.68H483.011L478.475 128.024H454.355L449.747 138.68ZM463.067 107.792L458.531 118.304H474.299L469.763 107.792L466.811 100.304H466.019L463.067 107.792ZM524.771 138.68H511.451L495.035 102.608H507.059L517.859 128.168H518.579L529.451 102.608H541.259L524.771 138.68ZM555.198 139.4C547.422 139.4 542.742 135.8 542.742 129.752C542.742 124.424 546.702 121.112 554.406 120.32L569.886 118.736V117.368C569.886 112.688 567.798 111.392 562.038 111.392C556.566 111.392 554.334 112.832 554.334 116.936V117.224H543.462V117.008C543.462 108.08 550.95 101.888 562.83 101.888C574.854 101.888 580.542 108.08 580.542 117.512V138.68H570.462V130.4H569.886C568.23 136.016 563.19 139.4 555.198 139.4ZM553.614 129.032C553.614 130.976 555.126 131.768 558.294 131.768C565.638 131.768 569.598 130.04 569.886 124.928L557.358 126.368C554.766 126.584 553.614 127.304 553.614 129.032ZM596.816 138.68H586.016V102.608H596.024V113.696H596.672C597.608 107.648 601.928 101.888 611.36 101.888C621.224 101.888 625.904 108.224 625.904 116.216V138.68H615.104V119.816C615.104 114.056 612.728 111.608 606.104 111.608C599.264 111.608 596.816 114.344 596.816 120.464V138.68ZM654.552 155.168H647.424V149.408H654.696C655.488 149.408 655.92 149.192 655.92 148.472C655.92 147.608 655.488 147.464 654.696 147.464H647.64V139.256C636.984 138.176 630.288 131.12 630.288 120.68C630.288 109.16 638.208 101.888 650.592 101.888C662.184 101.888 670.104 108.08 670.104 117.44V118.448H659.376V117.872C659.376 113.264 655.992 111.608 650.376 111.608C643.968 111.608 641.016 113.984 641.016 120.68C641.016 127.304 643.968 129.68 650.376 129.68C655.992 129.68 659.376 128.024 659.376 123.416V122.84H670.104V123.848C670.104 132.416 663.408 138.392 653.328 139.256V141.776H654.552C659.52 141.776 662.184 144.368 662.184 148.4C662.184 152.504 659.52 155.168 654.552 155.168ZM685.839 139.4C678.063 139.4 673.383 135.8 673.383 129.752C673.383 124.424 677.343 121.112 685.047 120.32L700.527 118.736V117.368C700.527 112.688 698.439 111.392 692.679 111.392C687.207 111.392 684.975 112.832 684.975 116.936V117.224H674.103V117.008C674.103 108.08 681.591 101.888 693.471 101.888C705.495 101.888 711.183 108.08 711.183 117.512V138.68H701.103V130.4H700.527C698.871 136.016 693.831 139.4 685.839 139.4ZM684.255 129.032C684.255 130.976 685.767 131.768 688.935 131.768C696.279 131.768 700.239 130.04 700.527 124.928L687.999 126.368C685.407 126.584 684.255 127.304 684.255 129.032ZM732.785 139.4C721.553 139.4 715.361 132.056 715.361 120.68C715.361 109.16 721.481 101.888 732.209 101.888C740.777 101.888 745.169 106.136 746.393 112.184H747.041V90.44H757.841V138.68H747.761V128.672H747.185C745.817 135.8 741.065 139.4 732.785 139.4ZM726.305 120.68C726.305 127.232 729.545 129.536 736.457 129.536C743.297 129.536 747.041 127.16 747.041 120.896V120.32C747.041 114.056 743.369 111.752 736.457 111.752C729.545 111.752 726.305 114.056 726.305 120.68ZM774.643 139.4C766.867 139.4 762.187 135.8 762.187 129.752C762.187 124.424 766.147 121.112 773.851 120.32L789.331 118.736V117.368C789.331 112.688 787.243 111.392 781.483 111.392C776.011 111.392 773.779 112.832 773.779 116.936V117.224H762.907V117.008C762.907 108.08 770.395 101.888 782.275 101.888C794.299 101.888 799.987 108.08 799.987 117.512V138.68H789.907V130.4H789.331C787.675 136.016 782.635 139.4 774.643 139.4ZM773.059 129.032C773.059 130.976 774.571 131.768 777.739 131.768C785.083 131.768 789.043 130.04 789.331 124.928L776.803 126.368C774.211 126.584 773.059 127.304 773.059 129.032Z" fill="white"/>
</svg>
