<svg width="794" height="256" viewBox="0 0 794 256" fill="none" xmlns="http://www.w3.org/2000/svg">
<path fill-rule="evenodd" clip-rule="evenodd" d="M587.728 94.8932C540.267 126.631 514.675 123.338 509.365 135.429C468.034 229.538 484.275 255.083 459.375 254.201C444.127 253.661 440.648 242.359 456.382 169.811C460.187 152.269 489.847 31.7244 507.44 21.317C513.505 17.7293 525.094 18.4812 525.421 25.7726C525.617 30.141 525.882 36.0437 513.738 79.5643C511.883 86.2118 509.381 89.6527 513.085 87.5257C513.53 87.2703 574.606 -1.11013 623.952 0.0105688C655.623 0.729925 657.428 49.1652 587.728 94.8932ZM582.103 81.1309C620.167 50.805 634.683 16.1324 616.789 18.9997C602.254 21.3286 574.52 46.458 569.669 50.7123C565.007 55.2175 538.899 80.447 521.029 112.889C518.598 117.301 534.673 109.345 540.282 106.785C556.301 99.4759 570.328 90.5114 582.103 81.1309ZM148.837 54.6992C152.771 51.266 179.438 27.99 208.016 21.3777C277.8 5.23119 230.617 84.2308 209.22 133.555C170.562 222.668 168.897 256.867 151.796 255.027C109.833 250.512 202.691 71.5649 211.067 46.2919C217.683 26.3317 180.631 48.9577 154.711 74.1561C88.587 138.437 44.8826 231.208 37.9698 245.881C33.6613 255.027 17.8412 258.87 7.79232 253.639C-22.0404 238.109 41.748 78.7556 65.3606 49.62C74.7304 38.0587 88.0939 39.5861 91.663 46.5577C96.278 55.5722 71.8523 105.796 53.3605 157.123C23.6735 239.524 73.5409 121.109 148.838 54.6988L148.837 54.6992ZM708.122 182.072C677.857 215.02 677.02 241.495 657.189 234.571C640.77 228.838 653.833 153.977 678.697 150.793C705.12 147.408 678.664 188.963 685.782 186.212C688.362 185.214 683.754 181.992 707.625 163.083C717.312 155.408 743.523 145.427 735.787 178.502C734.69 183.196 722.687 234.513 721.109 237.026C716.513 244.349 706.907 241.128 705.371 229.412C700.936 195.587 719.089 171.703 708.122 182.072ZM300.231 247.697C296.629 241.212 298.565 240.943 301.819 219.635C313.968 140.081 323.196 141.03 321.393 135.389C319.569 129.68 238.708 139.295 234.394 135.238C229.71 130.834 237.266 131.858 322.336 123.973C328.362 123.415 330.621 115.208 331.199 114.147C334.017 108.976 343.044 106.874 348.661 108.776C358.288 112.035 345.258 123.214 359.262 123.522C425.334 124.977 429.251 123.113 428.611 127.651C427.777 133.568 362.218 127.936 352.005 132.379C344.732 135.543 331.605 211.448 321.364 237.354C313.882 256.282 301.793 248.68 300.231 247.697ZM227.536 168.336C247.919 148.614 264.432 159.195 265.406 165.746C266.353 172.11 269.185 162.091 280.584 161.016C297.575 159.415 289.524 178.948 279.133 216.676C275.105 231.303 278.538 239.343 268.699 237.984C247.079 234.998 268.178 195.123 257.456 207.582C253.839 211.785 237.443 228.597 223.29 230.141C188.029 233.988 210.979 185.201 227.537 168.337L227.536 168.336ZM245.402 180.85C243.876 182.814 224.718 207.462 231.653 207.685C234.639 207.781 265.508 181.384 254.206 175.829C251.845 174.668 245.959 180.315 245.402 180.85ZM386.11 214.284C328.183 258.007 350.171 148.111 383.203 161.747C397.919 167.822 360.071 218.33 390.666 190.587C405.731 176.926 428.762 148.979 439.925 159.243C449.394 167.95 415.622 241.458 407.009 239.923C404.895 239.546 395.61 230.609 405.232 200.064C407.376 193.258 402.082 200.676 386.11 214.284L386.11 214.284ZM589.757 96.7293C594.722 94.3849 594.574 93.1607 600.092 94.331C609.039 96.2283 602.991 107.556 602.067 109.905C565.219 203.569 561.124 238.345 551.331 242.357C522.596 254.129 558.183 122.116 589.757 96.7293ZM775.917 226.874C757.293 245.342 728.785 237.569 743.66 196.276C759.506 152.285 789.88 146.921 793.611 165.738C795.144 173.471 792.718 205.843 775.918 226.874H775.917ZM768.733 211.287C774.276 202.41 777.031 192.426 779.597 180.439C786.193 149.628 760.942 195.496 765.962 211.764C766.445 213.328 767.017 212.104 768.733 211.287ZM603.041 203.493C598.736 209.27 595.031 232.006 614.274 227.16C636.795 221.487 601.072 248.987 582.66 230.134C559.934 206.864 602.018 148.956 638.147 152.518C662.505 154.92 643.173 190.236 615.508 198.93C609.571 200.796 609.394 200.326 603.041 203.493L603.041 203.493ZM618.585 177.178C610.304 186.535 610.761 187.532 611.905 187.611C619.986 188.169 636.26 168.198 628.69 168.608C626.946 168.702 619.316 176.436 618.585 177.178Z" fill="white"/>
</svg>
